<svg version="1.1" id="logo_ah" xmlns="http://www.w3.org/2000/svg" xmlns:xlink="http://www.w3.org/1999/xlink" x="0px" y="0px"
	 width="100%" viewBox="0 0 3141 2266" xml:space="preserve">
<path fill="currentColor" opacity="1.000000" stroke="none" 
	d="
M2529.070801,2.000000 
	C2527.175781,3.726786 2529.728271,4.822939 2530.708008,5.246531 
	C2541.158691,9.765029 2547.640869,17.945154 2551.795166,28.132181 
	C2566.591064,64.413994 2587.254639,97.451790 2608.651855,130.000244 
	C2638.656982,175.642502 2669.395020,220.802078 2699.655518,266.277466 
	C2726.408203,306.481873 2747.212158,349.461243 2758.978027,396.495605 
	C2765.963867,424.420563 2769.278809,452.847656 2767.465088,481.580688 
	C2765.587158,511.330292 2759.022705,540.128723 2746.445068,567.357056 
	C2745.750488,568.861206 2745.223633,570.446045 2744.682373,572.015198 
	C2744.592285,572.275940 2744.831055,572.650085 2745.164062,573.882935 
	C2747.053955,573.882935 2749.207764,573.985291 2751.349609,573.867615 
	C2788.575195,571.822021 2824.667480,576.384155 2857.660156,594.827026 
	C2872.131836,602.916748 2885.529297,612.990051 2899.122314,622.577271 
	C2928.230957,643.108093 2956.832764,664.372559 2986.249512,684.446411 
	C3008.288330,699.485718 3031.572754,712.622375 3058.051025,718.421509 
	C3066.429688,720.256592 3075.130615,720.646912 3083.693848,721.611145 
	C3099.858887,723.431274 3111.047119,732.093872 3116.314697,747.214233 
	C3121.575684,762.315796 3117.658936,776.146240 3107.306641,788.082092 
	C3098.032471,798.774963 3086.465088,806.668396 3074.503418,814.003662 
	C3037.770996,836.528748 2998.726562,854.307922 2958.763916,870.167664 
	C2923.148926,884.301941 2887.035156,897.228516 2849.374268,904.491394 
	C2785.592773,916.791687 2728.648926,901.647888 2679.372803,858.885010 
	C2654.979004,837.715515 2637.624023,811.689575 2625.839111,781.751648 
	C2618.405273,762.866821 2626.362305,744.804199 2640.099121,736.407410 
	C2657.119141,726.003540 2680.947266,732.254333 2690.140869,750.012512 
	C2693.042236,755.616577 2695.024902,761.700378 2697.979736,767.272095 
	C2719.320801,807.515442 2752.462158,830.543213 2797.825928,836.518921 
	C2815.172119,838.803833 2831.640625,835.666321 2848.005615,831.371704 
	C2896.441895,818.660828 2942.970215,800.697571 2988.139648,779.161072 
	C2991.017822,777.788757 2993.681396,775.966064 2997.087646,773.977417 
	C2982.941406,765.926575 2969.194580,759.256470 2956.688965,750.759705 
	C2925.028809,729.248962 2893.921875,706.924072 2862.602783,684.911926 
	C2851.706543,677.253662 2840.880615,669.494568 2829.945557,661.892029 
	C2815.319092,651.722717 2798.699463,647.360535 2781.248779,645.697083 
	C2742.561768,642.009216 2707.238037,653.946167 2672.206299,668.418091 
	C2648.109131,678.372986 2628.016113,694.124451 2607.399414,709.295410 
	C2505.488525,784.286682 2403.640869,859.363647 2301.657471,934.255798 
	C2270.529785,957.114380 2239.151367,979.637268 2207.622314,1001.938477 
	C2201.410400,1006.332275 2199.193604,1011.013733 2199.705322,1018.555359 
	C2201.032471,1038.113892 2201.447021,1057.732544 2202.367432,1077.320679 
	C2203.428467,1099.893799 2204.693359,1122.457031 2205.774170,1145.029175 
	C2206.696777,1164.291016 2207.421143,1183.562256 2208.347412,1202.823853 
	C2209.449219,1225.729004 2210.738525,1248.625244 2211.824707,1271.531128 
	C2212.754150,1291.127686 2213.436768,1310.736206 2214.364990,1330.332886 
	C2215.434326,1352.901611 2216.707520,1375.460693 2217.791504,1398.028687 
	C2218.716309,1417.291992 2219.440186,1436.564941 2220.359131,1455.828491 
	C2221.467529,1479.061523 2222.743652,1502.286499 2223.843750,1525.519897 
	C2224.755859,1544.780396 2225.450928,1564.051270 2226.364502,1583.311768 
	C2227.419434,1605.549072 2228.666504,1627.777344 2229.723389,1650.014526 
	C2230.670410,1669.942993 2231.402100,1689.881714 2232.356689,1709.809814 
	C2233.453125,1732.713379 2234.746094,1755.607666 2235.848389,1778.510986 
	C2236.759521,1797.441162 2237.439697,1816.382690 2238.364258,1835.312256 
	C2239.515625,1858.876343 2240.884521,1882.429810 2242.021973,1905.994507 
	C2242.903564,1924.260742 2243.488037,1942.541138 2244.359863,1960.807861 
	C2245.500244,1984.706543 2246.856934,2008.594849 2248.000977,2032.493408 
	C2248.875732,2050.760986 2249.472900,2069.041992 2250.362305,2087.308838 
	C2251.201904,2104.554688 2252.398193,2121.783936 2253.161865,2139.032715 
	C2253.491211,2146.475830 2251.288574,2153.466797 2247.534180,2159.897705 
	C2234.971436,2181.416260 2217.512207,2197.957275 2195.846924,2210.055664 
	C2191.823975,2212.302002 2187.325684,2213.905273 2182.859619,2215.109619 
	C2171.370605,2218.207275 2163.842041,2215.310791 2156.884766,2205.526611 
	C2149.133545,2194.626465 2146.168945,2181.954346 2144.222900,2169.094238 
	C2142.834473,2159.917969 2142.170654,2150.595703 2141.772949,2141.313232 
	C2140.875732,2120.377441 2140.462891,2099.421631 2139.634033,2078.482422 
	C2138.555908,2051.246582 2137.219971,2024.021118 2136.082031,1996.787476 
	C2135.207520,1975.853760 2134.572754,1954.909912 2133.637207,1933.979248 
	C2132.687988,1912.736816 2131.460205,1891.506958 2130.439941,1870.267456 
	C2130.072754,1862.622192 2129.965332,1854.964478 2129.720215,1847.313110 
	C2129.038818,1826.035645 2128.474609,1804.753418 2127.628418,1783.482422 
	C2126.544922,1756.250000 2125.174561,1729.028809 2124.034912,1701.798462 
	C2123.158936,1680.863770 2122.557129,1659.917480 2121.635010,1638.985107 
	C2120.684570,1617.411133 2119.450195,1595.849731 2118.432129,1574.278564 
	C2118.055420,1566.298096 2117.957275,1558.304810 2117.703857,1550.318237 
	C2117.029541,1529.040649 2116.511719,1507.756226 2115.607666,1486.488403 
	C2114.747070,1466.243042 2113.420898,1446.018066 2112.415039,1425.778320 
	C2112.018311,1417.798462 2111.958252,1409.802490 2111.702881,1401.815063 
	C2111.033691,1380.870972 2110.458008,1359.922852 2109.629150,1338.984863 
	C2108.564209,1312.082031 2107.241699,1285.189331 2106.119141,1258.288574 
	C2105.231445,1237.022217 2104.579346,1215.745972 2103.634766,1194.482300 
	C2102.676514,1172.907959 2101.360107,1151.349121 2100.449951,1129.773071 
	C2099.930420,1117.463989 2099.984619,1105.131958 2099.616455,1092.815063 
	C2099.511475,1089.300415 2098.832031,1085.803223 2098.279541,1081.146240 
	C2095.129395,1082.880493 2093.084473,1083.779663 2091.283447,1085.030029 
	C2024.811279,1131.177368 1958.464233,1177.505859 1891.867798,1223.472900 
	C1856.234741,1248.068115 1820.256348,1272.166626 1784.283691,1296.265259 
	C1760.486206,1312.207275 1736.529907,1327.920532 1712.383911,1343.327637 
	C1707.774658,1346.268921 1706.111450,1349.321167 1706.261719,1354.562500 
	C1707.101440,1383.834595 1707.646973,1413.114990 1708.368774,1442.390747 
	C1708.967529,1466.671631 1709.749390,1490.948364 1710.309814,1515.230225 
	C1711.062256,1547.838379 1711.637695,1580.450684 1712.367798,1613.059448 
	C1712.963501,1639.670898 1713.702637,1666.279297 1714.328003,1692.890137 
	C1715.031616,1722.833374 1715.658813,1752.778442 1716.356079,1782.721802 
	C1716.991089,1810.001465 1717.696899,1837.279663 1718.331909,1864.559326 
	C1719.028931,1894.502808 1719.655151,1924.447998 1720.359497,1954.391357 
	C1720.985596,1981.011230 1721.707275,2007.628662 1722.329956,2034.248657 
	C1723.037842,2064.523438 1723.091309,2094.829590 1724.613403,2125.062500 
	C1725.336548,2139.424805 1726.310425,2153.552246 1722.609741,2167.589355 
	C1712.873901,2204.518799 1683.198975,2229.718262 1645.245728,2231.941406 
	C1629.716797,2232.851318 1614.015747,2233.747314 1598.472534,2230.357178 
	C1563.865723,2222.808594 1535.755493,2190.700684 1533.767944,2156.573486 
	C1532.414673,2133.337891 1532.227783,2110.031494 1531.685059,2086.752686 
	C1530.924805,2054.145996 1530.364380,2021.535034 1529.632202,1988.927734 
	C1529.042236,1962.648804 1528.289062,1936.373657 1527.672241,1910.095215 
	C1526.961304,1879.816406 1526.340332,1849.535522 1525.643677,1819.256348 
	C1525.008301,1791.645386 1524.311157,1764.035645 1523.664673,1736.424927 
	C1522.979004,1707.148560 1522.327148,1677.871338 1521.648926,1648.594727 
	C1520.993652,1620.317749 1520.322021,1592.041138 1519.660522,1563.764282 
	C1518.991333,1535.153687 1518.382202,1506.541504 1517.591187,1477.934326 
	C1517.484863,1474.088379 1516.468872,1470.267578 1515.696289,1465.288818 
	C1503.973389,1471.904419 1493.487061,1478.257080 1482.621460,1483.876221 
	C1442.407471,1504.672363 1402.069458,1525.229126 1361.773804,1545.867310 
	C1358.512451,1547.537720 1355.300293,1549.343262 1351.920044,1550.733032 
	C1347.103027,1552.713745 1346.059326,1555.559692 1346.987183,1560.891479 
	C1360.667725,1639.499023 1374.088013,1718.151978 1387.498291,1796.806396 
	C1395.711914,1844.980835 1403.758423,1893.183838 1411.961304,1941.360229 
	C1421.502930,1997.400024 1430.771240,2053.490234 1440.889160,2109.426514 
	C1445.467773,2134.739502 1430.869263,2160.942627 1399.216064,2163.566406 
	C1378.387085,2165.293213 1358.522583,2149.207031 1354.323730,2127.403564 
	C1352.186279,2116.304443 1350.316040,2105.154053 1348.329468,2094.026123 
	C1336.410034,2027.258057 1324.444946,1960.498169 1312.586548,1893.719360 
	C1300.902466,1827.922241 1289.328247,1762.105591 1277.703125,1696.298096 
	C1272.323975,1665.848145 1266.955688,1635.396118 1261.527588,1604.954834 
	C1261.007080,1602.036011 1260.096436,1599.186646 1259.013916,1594.910767 
	C1251.054565,1598.307373 1243.565918,1601.451050 1236.118408,1604.689453 
	C1185.771729,1626.580566 1135.784912,1649.347656 1085.005859,1670.184326 
	C1018.197144,1697.598877 951.081238,1724.332031 883.512573,1749.807007 
	C821.870117,1773.047729 759.492004,1794.345215 697.347595,1816.242310 
	C672.552795,1824.978882 647.610535,1833.330322 622.527649,1841.194702 
	C615.291260,1843.463501 611.770447,1847.086914 609.896667,1854.370483 
	C599.618530,1894.322998 588.869751,1934.154541 578.295837,1974.031128 
	C561.753418,2036.416382 545.220581,2098.804199 528.686096,2161.191650 
	C525.106567,2174.698242 521.455994,2188.186523 517.980652,2201.719727 
	C510.095062,2232.427246 491.312653,2253.183594 461.514618,2264.027344 
	C459.765472,2264.663818 458.249512,2265.940918 457.312531,2267.459961 
	C442.624847,2268.000000 427.249664,2268.000000 411.541504,2267.372803 
	C408.880676,2265.667969 406.623322,2264.387939 404.212677,2263.547607 
	C394.183655,2260.052490 383.495148,2257.879150 374.158630,2253.067139 
	C337.562683,2234.205078 320.678986,2193.583740 331.450226,2153.209473 
	C352.014496,2076.127686 372.426636,1999.005615 392.850128,1921.886475 
	C393.649475,1918.868164 393.914154,1915.708252 394.563782,1911.796753 
	C391.586304,1912.418335 389.987732,1912.665161 388.437195,1913.087891 
	C345.787140,1924.719482 303.198669,1936.581787 260.483093,1947.967163 
	C190.457626,1966.631348 120.020958,1983.592163 49.186501,1998.949219 
	C31.520493,2002.779419 12.292172,1994.542480 6.009732,1978.711792 
	C5.517942,1977.472656 3.375333,1976.888550 1.999978,1976.000000 
	C2.000000,1968.614136 2.000000,1961.228394 2.000000,1952.921265 
	C5.523160,1953.756592 5.944024,1950.500122 6.785638,1948.716431 
	C12.230171,1937.176514 21.822924,1931.416138 33.769878,1928.581543 
	C100.123627,1912.838013 166.682297,1897.891479 232.742264,1880.996460 
	C292.036316,1865.831909 350.759979,1848.441772 409.789032,1832.229126 
	C415.244354,1830.730713 417.981628,1828.136841 419.446960,1822.548096 
	C441.555878,1738.225830 463.844696,1653.950684 486.182739,1569.688599 
	C506.814697,1491.862183 527.590820,1414.073853 548.239136,1336.251587 
	C567.778198,1262.609619 587.196045,1188.935547 606.735474,1115.293579 
	C630.541260,1025.572144 654.452820,935.878662 678.254700,846.156128 
	C700.948364,760.611206 723.525146,675.035278 746.217651,589.489990 
	C766.861694,511.667450 787.591431,433.867645 808.285095,356.058258 
	C819.572998,313.614929 830.696716,271.126892 842.227234,228.749573 
	C847.753906,208.437515 855.226501,188.864182 867.702026,171.580124 
	C884.417297,148.422119 906.934570,136.630234 935.577332,135.541153 
	C961.905579,134.540070 987.066284,138.958740 1011.501465,148.595215 
	C1040.699951,160.110229 1051.552368,190.135681 1044.348022,217.593246 
	C1033.035156,260.709686 1021.581665,303.789307 1010.148621,346.874115 
	C993.508911,409.579590 976.829285,472.274414 960.176331,534.976318 
	C937.459961,620.508789 914.721619,706.035400 892.051086,791.580017 
	C873.811707,860.404053 855.729004,929.269653 837.449097,998.082825 
	C816.607361,1076.539795 795.551941,1154.939819 774.723145,1233.400146 
	C755.004395,1307.679199 735.511536,1382.018188 715.822144,1456.305054 
	C696.642578,1528.668091 677.329895,1600.995728 658.096375,1673.344482 
	C650.916443,1700.352661 643.786133,1727.373901 636.670593,1754.399048 
	C636.264343,1755.942139 636.197021,1757.574463 635.966248,1759.204956 
	C666.093506,1760.596313 1156.237793,1569.001831 1246.042725,1520.776733 
	C1245.174072,1514.991943 1244.392090,1508.815552 1243.304077,1502.693481 
	C1234.287354,1451.958862 1225.229980,1401.231689 1216.153931,1350.507690 
	C1207.017944,1299.448853 1197.794189,1248.405640 1188.704102,1197.338623 
	C1178.507690,1140.055664 1168.458862,1082.746216 1158.269531,1025.462036 
	C1149.127319,974.064209 1139.836060,922.692993 1130.693726,871.295166 
	C1120.503906,814.007874 1110.449463,756.696472 1100.259033,699.409363 
	C1091.117676,648.020813 1081.812988,596.661377 1072.688721,545.269897 
	C1063.622070,494.202911 1054.719482,443.106842 1045.686646,392.033844 
	C1041.517822,368.462402 1037.056152,344.941467 1033.081055,321.338013 
	C1032.157349,315.853912 1031.741821,309.961945 1032.695801,304.539734 
	C1036.842773,280.967804 1041.551758,257.494202 1046.145630,234.002258 
	C1046.711426,231.109116 1047.812012,228.320557 1048.796875,225.043900 
	C1051.219971,225.043900 1053.563354,224.564850 1055.627075,225.121613 
	C1069.090820,228.753708 1082.656982,232.123505 1095.865967,236.545990 
	C1106.642822,240.154190 1114.510986,247.441223 1119.494019,258.145355 
	C1125.897217,271.900116 1129.310669,286.342041 1131.814575,301.151276 
	C1140.738403,353.930664 1149.748901,406.695404 1158.747314,459.462158 
	C1167.073608,508.288300 1175.393921,557.115540 1183.775757,605.932190 
	C1195.647217,675.073242 1207.649658,744.191833 1219.452026,813.344666 
	C1229.856079,874.304871 1239.967773,935.315002 1250.381226,996.273621 
	C1262.585571,1067.718262 1275.044922,1139.119263 1287.267700,1210.560791 
	C1299.658936,1282.987427 1311.885010,1355.442017 1324.208984,1427.880249 
	C1327.045288,1444.551514 1329.986328,1461.205200 1333.019043,1478.673584 
	C1335.785400,1477.917847 1338.028198,1477.663940 1339.939575,1476.730957 
	C1396.817017,1448.967163 1452.865479,1419.668945 1507.080811,1386.930908 
	C1512.304810,1383.776245 1514.592896,1380.540405 1514.448608,1374.401978 
	C1513.924072,1352.087769 1514.023560,1329.759644 1513.615356,1307.441650 
	C1513.104248,1279.492920 1512.317261,1251.549072 1511.662964,1223.602905 
	C1510.985107,1194.656616 1510.330811,1165.710083 1509.652344,1136.763794 
	C1508.997192,1108.817749 1508.316284,1080.872314 1507.661133,1052.926270 
	C1506.982788,1023.980469 1506.329346,995.034180 1505.651123,966.088440 
	C1504.996460,938.142944 1504.318726,910.197998 1503.660889,882.252563 
	C1502.987305,853.641296 1502.325684,825.029724 1501.658813,796.418274 
	C1500.991821,767.806702 1500.327515,739.195007 1499.657104,710.583496 
	C1498.994629,682.305664 1498.323364,654.028076 1497.660156,625.750244 
	C1496.989136,597.137817 1496.324829,568.525146 1495.654297,539.912720 
	C1494.991577,511.633026 1494.322632,483.353485 1493.660278,455.073761 
	C1492.989990,426.463013 1492.327515,397.852051 1491.656494,369.241333 
	C1490.993408,340.959869 1490.320923,312.678589 1489.658203,284.397125 
	C1488.987915,255.786285 1488.341309,227.174866 1487.652466,198.564468 
	C1487.244141,181.606445 1486.074463,164.630020 1486.555664,147.699081 
	C1486.931519,134.477249 1488.343384,121.111397 1491.005737,108.161331 
	C1498.278442,72.786644 1519.465332,49.453732 1554.274902,39.123638 
	C1579.477661,31.644442 1605.091064,29.754698 1631.263184,33.384151 
	C1655.461304,36.739864 1671.232544,56.343697 1675.652588,76.439445 
	C1676.997559,82.554535 1677.471191,88.948341 1677.595093,95.229263 
	C1678.022095,116.880013 1677.976807,138.539886 1678.375122,160.191452 
	C1678.901245,188.789551 1679.674805,217.383102 1680.344604,245.978546 
	C1681.007080,274.258942 1681.674072,302.539215 1682.336548,330.819611 
	C1683.007080,359.431152 1683.672241,388.042816 1684.343506,416.654327 
	C1685.006714,444.925568 1685.677734,473.196655 1686.339844,501.467926 
	C1687.009888,530.079895 1687.672729,558.692017 1688.340332,587.304077 
	C1689.008057,615.916321 1689.669922,644.528748 1690.348755,673.140747 
	C1691.004150,700.753235 1691.695190,728.364868 1692.338623,755.977661 
	C1693.028809,785.589539 1693.664429,815.202698 1694.355835,844.814514 
	C1694.993042,872.095581 1695.686890,899.375305 1696.328979,926.656311 
	C1697.017944,955.934387 1697.666504,985.213318 1698.349365,1014.491577 
	C1699.001465,1042.441406 1699.682739,1070.390625 1700.337158,1098.340332 
	C1701.015137,1127.285767 1701.627808,1156.232788 1702.360474,1185.176758 
	C1702.950073,1208.464966 1703.666504,1231.749756 1704.357422,1255.035278 
	C1704.412720,1256.899414 1704.706787,1258.756470 1704.997681,1261.713623 
	C1708.467407,1259.742065 1711.068359,1258.475342 1713.449219,1256.879883 
	C1761.881714,1224.426880 1810.636353,1192.439575 1858.621948,1159.337891 
	C1935.374390,1106.392578 2011.577637,1052.651489 2088.139893,999.428833 
	C2094.061523,995.312256 2096.362061,991.434692 2094.785400,983.834656 
	C2093.120605,975.808655 2093.983154,967.260620 2093.717529,958.941345 
	C2093.037842,937.662476 2092.487793,916.378174 2091.621826,895.106812 
	C2090.499756,867.541199 2089.033691,839.989624 2087.882324,812.425049 
	C2087.007812,791.495850 2086.533691,770.549622 2085.624512,749.622192 
	C2084.716309,728.710327 2083.428223,707.815247 2082.428711,686.906921 
	C2082.015381,678.260864 2081.946045,669.598694 2081.674316,660.945374 
	C2081.016602,639.997742 2080.423584,619.047485 2079.636719,598.104675 
	C2078.375488,564.537903 2076.999023,530.975342 2075.632812,497.412567 
	C2074.334229,465.521606 2072.959961,433.633698 2071.666748,401.742462 
	C2070.292969,367.852112 2068.990967,333.958801 2067.625977,300.068054 
	C2067.010254,284.790466 2066.344727,269.514801 2065.655273,254.240356 
	C2064.410400,226.675537 2062.989502,199.117828 2061.908691,171.546707 
	C2060.970215,147.612442 2060.862305,123.637672 2059.515625,99.729919 
	C2058.493652,81.591583 2072.133789,60.878567 2093.770752,54.613670 
	C2126.608643,45.105598 2156.479004,69.818619 2156.557617,101.165237 
	C2156.619141,125.735046 2158.749756,150.297745 2159.878418,174.867432 
	C2160.763184,194.133911 2161.444336,213.409851 2162.354736,232.675034 
	C2163.436768,255.580414 2164.722900,278.476135 2165.817139,301.380981 
	C2166.737305,320.646332 2167.445068,339.921844 2168.362549,359.187317 
	C2169.437500,381.757782 2170.692383,404.319672 2171.766602,426.890167 
	C2172.699463,446.492462 2173.423828,466.104645 2174.360596,485.706757 
	C2175.454834,508.612030 2176.738281,531.508301 2177.829834,554.413757 
	C2178.748047,573.679688 2179.448730,592.955994 2180.356445,612.222473 
	C2181.435547,635.126709 2182.674561,658.023315 2183.766602,680.926941 
	C2184.685059,700.190979 2185.424561,719.463623 2186.366943,738.726440 
	C2187.503662,761.958191 2188.841553,785.180115 2189.959717,808.412720 
	C2190.854980,827.012451 2191.543213,845.622070 2192.339600,864.226624 
	C2193.007812,879.838440 2193.628662,895.453003 2194.441162,911.057373 
	C2194.593994,913.994385 2195.550781,916.889587 2196.405273,921.141357 
	C2199.584473,919.093506 2202.293457,917.535278 2204.803711,915.704773 
	C2283.365723,858.419617 2362.033691,801.279175 2440.408936,743.739929 
	C2492.750977,705.313232 2544.767090,666.439880 2596.694336,627.454224 
	C2606.233887,620.292236 2614.891357,611.885437 2623.526855,603.605774 
	C2636.709229,590.966858 2649.603760,578.023193 2662.464111,565.053650 
	C2679.037598,548.339539 2686.951416,527.152405 2692.008057,504.882385 
	C2699.863525,470.286346 2696.290283,436.114655 2686.246094,402.440521 
	C2674.703613,363.742584 2655.229492,329.099091 2632.819824,295.726593 
	C2597.544678,243.195175 2563.136230,190.081848 2528.335449,137.231689 
	C2526.758057,134.836349 2524.929688,132.606400 2522.182617,128.903168 
	C2519.958496,137.231033 2518.039795,143.873352 2516.414307,150.586700 
	C2502.714600,207.169785 2489.100098,263.773468 2475.388428,320.353638 
	C2470.614502,340.052155 2464.130615,359.470367 2461.068359,379.421875 
	C2454.483887,422.324524 2454.889160,465.038239 2471.794189,506.131653 
	C2483.065430,533.530151 2501.297607,554.894226 2527.027344,569.788147 
	C2549.992188,583.081665 2552.851807,612.072021 2532.996094,629.469299 
	C2521.816162,639.265015 2505.347168,640.371826 2491.026611,632.090942 
	C2461.603271,615.076538 2438.050537,592.006470 2420.294189,563.033813 
	C2401.683838,532.667664 2391.944580,499.334045 2387.879395,464.234344 
	C2381.854980,412.222229 2388.581055,361.586670 2403.083496,311.422852 
	C2413.424805,275.652039 2421.326660,239.173889 2430.232910,202.990662 
	C2443.272461,150.015152 2454.437744,96.545258 2471.739258,44.694836 
	C2475.645752,32.987617 2480.090576,21.358709 2489.738037,12.918246 
	C2493.931885,9.248999 2498.750732,6.294368 2502.643066,2.507580 
	C2510.713867,2.000000 2519.427490,2.000000 2529.070801,2.000000 
z"/>
</svg>